<svg xmlns="http://www.w3.org/2000/svg" viewBox="0 0 1024 1024" role="img" aria-label="Cosmetics Shelf app icon">
  <rect width="1024" height="1024" fill="#FAF7F0"/>
  <g fill="none" stroke="#2E3033" stroke-width="40" stroke-linecap="round" stroke-linejoin="round">
    <circle cx="512" cy="500" r="250"/>
    <path d="M512 250v72"/>
    <path d="M512 500l92-86"/>
  </g>
  <g fill="#C8747D" stroke="#2E3033" stroke-width="34" stroke-linecap="round" stroke-linejoin="round">
    <path d="M238 632h548v86H238z"/>
    <path d="M264 718h72v64h-72z"/>
    <path d="M688 718h72v64h-72z"/>
    <path d="M304 430h132c28 0 50 22 50 50v152H254V480c0-28 22-50 50-50z"/>
    <path d="M340 344h72v86h-72z"/>
    <path d="M548 386h76c28 0 50 22 50 50v196H498V436c0-28 22-50 50-50z"/>
    <path d="M566 314h90v72h-90z"/>
    <path d="M728 470l66 162H662z"/>
    <path d="M696 414h64l34 56H662z"/>
  </g>
  <g fill="#FAF7F0" stroke="#2E3033" stroke-width="26" stroke-linecap="round" stroke-linejoin="round">
    <path d="M357 520v72"/>
    <path d="M586 474v102"/>
  </g>
</svg>
